<?xml version="1.0" encoding="UTF-8" standalone="no"?>
<svg width="50px" height="50px" viewBox="0 0 50 50" version="1.1" xmlns="http://www.w3.org/2000/svg" xmlns:xlink="http://www.w3.org/1999/xlink">
    <!-- Generator: Sketch 3.7.2 (28276) - http://www.bohemiancoding.com/sketch -->
    <title>_fh_logo_blue copy</title>
    <desc>Created with Sketch.</desc>
    <defs></defs>
    <g id="Welcome" stroke="none" stroke-width="1" fill="none" fill-rule="evenodd">
        <g id="Desktop-Copy-3" transform="translate(-487.000000, -1335.000000)">
            <g id="_fh_logo_blue-copy" transform="translate(487.000000, 1335.000000)">
                <g id="Ebene_1">
                    <circle id="Oval" fill="#00AFD7" cx="25" cy="25" r="25"></circle>
                    <path d="M31.8,9.1 C30.3,4.5 21.6,4.6 21.6,12.5 L21.6,32.5 C21.6,39.5 14,37.7 14,31.3 C14,26.7 18.3,25.8 18.3,23.3 C18.3,20.6 14.7,20.6 14.7,23.3 C14.7,25.6 16.5,27.4 19.1,27.4 C20.9,27.4 24.6,24.5 27.6,22.3 C29.2,21.2 30.4,20.4 31.4,19.5 C34.5,16.9 32.2,12.1 29.2,14.7 C27.4,16.3 27.5,20.2 27.5,22.2 L27.5,36 C27.5,38.4 27.8,42.5 26.1,43.5 C22.8,45.5 20.5,40.8 24,38.3 C25,37.6 26.2,36.8 27.5,35.9 C30.5,34 33.1,32 33.1,32" id="Shape" stroke="#363432" stroke-width="2"></path>
                </g>
            </g>
        </g>
    </g>
</svg>