<?xml version="1.0" encoding="UTF-8" standalone="no"?>
<svg width="36px" height="40px" viewBox="0 0 36 40" version="1.1" xmlns="http://www.w3.org/2000/svg" xmlns:xlink="http://www.w3.org/1999/xlink">
    <!-- Generator: Sketch 3.8.1 (29687) - http://www.bohemiancoding.com/sketch -->
    <title>Combined Shape</title>
    <desc>Created with Sketch.</desc>
    <defs></defs>
    <g id="Welcome" stroke="none" stroke-width="1" fill="none" fill-rule="evenodd">
        <g id="Desktop-Copy-3" transform="translate(-494.000000, -123.000000)" fill="#FFFFFF">
            <path d="M510.554622,136.067227 L507.109244,155.394958 C506.436975,159.092437 505.512605,163 499.294118,163 C497.319328,163 495.302521,162.495798 494,161.655462 L495.806723,157.453782 C496.647059,157.915966 497.487395,158.168067 498.453782,158.168067 C499.92437,158.168067 500.848739,157.579832 501.310924,155.10084 L504.672269,136.067227 L501.89916,136.067227 L502.613445,132.07563 L505.386555,132.07563 L505.638655,130.647059 C506.436975,126.151261 508.285714,123 514.588235,123 C516.941176,123 518.789916,123.630252 520.092437,124.428571 L518.201681,128.210084 C517.02521,127.579832 516.016807,127.327731 514.882353,127.327731 C512.739496,127.327731 511.857143,128.336134 511.478992,130.563025 L511.226891,132.07563 C511.226891,132.07563 514.600885,132.08764 515.932524,132.07563 C517.264162,132.06362 518.376817,131.30794 518.989331,130.734778 C519.957044,129.829236 520.710772,128.619378 521.442456,127.15601 L524.67775,127.15601 L523.795397,131.987943 L529.047498,131.987943 L528.123128,136.063573 L523.081111,136.063573 L521.316405,146.35769 C520.85422,148.710632 521.442456,149.340884 523.081111,149.340884 C524.257582,149.340884 525.392035,148.920716 526.190355,148.542564 L526.65254,152.534161 C525.308002,153.33248 523.291195,153.836682 520.938254,153.836682 C514.341615,153.836682 514.761783,149.887102 515.308002,146.693825 L517.198758,136.07088 L510.554622,136.067227 Z" id="Combined-Shape"></path>
        </g>
    </g>
</svg>