<?xml version="1.0" encoding="UTF-8" standalone="no"?>
<svg width="36px" height="40px" viewBox="0 0 36 40" version="1.1" xmlns="http://www.w3.org/2000/svg" xmlns:xlink="http://www.w3.org/1999/xlink">
    <!-- Generator: Sketch 3.7.2 (28276) - http://www.bohemiancoding.com/sketch -->
    <title>Combined Shape</title>
    <desc>Created with Sketch.</desc>
    <defs></defs>
    <g id="Welcome" stroke="none" stroke-width="1" fill="none" fill-rule="evenodd">
        <g id="Artboard-7" transform="translate(-8.000000, -9.000000)" fill="#363432">
            <path d="M24.5546218,22.0672269 L21.1092437,41.394958 C20.4369748,45.092437 19.512605,49 13.2941176,49 C11.3193277,49 9.30252101,48.4957983 8,47.6554622 L9.80672269,43.4537815 C10.6470588,43.9159664 11.487395,44.1680672 12.4537815,44.1680672 C13.9243697,44.1680672 14.8487395,43.5798319 15.3109244,41.1008403 L18.6722689,22.0672269 L15.8991597,22.0672269 L16.6134454,18.0756303 L19.3865546,18.0756303 L19.6386555,16.6470588 C20.4369748,12.1512605 22.2857143,9 28.5882353,9 C30.9411765,9 32.789916,9.6302521 34.092437,10.4285714 L32.2016807,14.210084 C31.0252101,13.5798319 30.0168067,13.3277311 28.8823529,13.3277311 C26.7394958,13.3277311 25.8571429,14.3361345 25.4789916,16.5630252 L25.2268908,18.0756303 C25.2268908,18.0756303 28.6008852,18.0876402 29.9325236,18.0756303 C31.2641619,18.0636204 32.3768166,17.3079405 32.9893309,16.7347776 C33.9570437,15.8292363 34.7107718,14.619378 35.4424557,13.1560104 L38.6777498,13.1560104 L37.7953968,17.987943 L43.0474977,17.987943 L42.1231279,22.0635732 L37.0811111,22.0635732 L35.3164052,32.3576905 C34.8542204,34.7106316 35.4424557,35.3408837 37.0811111,35.3408837 C38.2575817,35.3408837 39.3920355,34.9207156 40.1903548,34.5425644 L40.6525397,38.5341609 C39.3080019,39.3324802 37.2911952,39.8366818 34.938254,39.8366818 C28.3416153,39.8366818 28.7617834,35.8871021 29.3080019,32.6938249 L31.1987582,22.07088 L24.5546218,22.0672269 Z" id="Combined-Shape"></path>
        </g>
    </g>
</svg>