<?xml version="1.0" encoding="UTF-8" standalone="no"?>
<svg width="151px" height="44px" viewBox="0 0 151 44" version="1.1" xmlns="http://www.w3.org/2000/svg" xmlns:xlink="http://www.w3.org/1999/xlink">
    <!-- Generator: Sketch 3.7.2 (28276) - http://www.bohemiancoding.com/sketch -->
    <title>Fill 1</title>
    <desc>Created with Sketch.</desc>
    <defs></defs>
    <g id="Welcome" stroke="none" stroke-width="1" fill="none" fill-rule="evenodd">
        <g id="Desktop-Copy-3" transform="translate(-192.000000, -129.000000)" fill="#363432">
            <path d="M343,129.4614 L338.017184,157.467171 C337.878764,158.343832 338.109464,158.574532 338.985817,158.528392 L340.785278,158.436112 L340.047038,162.358015 C338.893537,162.727135 337.001795,162.911696 335.756014,162.911696 C332.065119,162.911696 330.911618,161.066094 331.603719,157.375199 L335.617902,134.813337 C335.756014,133.936676 335.479482,133.475583 334.740934,133.429136 L333.35704,133.337163 L334.048833,129.4614 L343,129.4614 Z M323.851885,151.054014 C324.082586,149.577533 324.175173,148.193332 324.175173,147.132419 C324.175173,144.548577 323.344653,143.025956 321.176071,143.025956 C318.269556,143.025956 316.700487,145.563657 315.916107,149.854373 C315.593127,151.330854 315.501154,152.945756 315.501154,154.191536 C315.501154,156.590818 316.193255,158.298 318.453809,158.298 C321.360323,158.298 322.975225,155.990998 323.851885,151.054014 L323.851885,151.054014 Z M330.818723,146.901718 C330.818723,154.422237 327.727648,162.957836 317.577456,162.957836 C311.994511,162.957836 308.857297,160.004873 308.857297,154.422237 C308.857297,147.547679 311.533111,138.36612 322.145012,138.36612 C325.420954,138.36612 330.818723,139.611901 330.818723,146.901718 L330.818723,146.901718 Z M301.213422,151.054014 C301.443815,149.577533 301.536403,148.193332 301.536403,147.132419 C301.536403,144.548577 300.705882,143.025956 298.5373,143.025956 C295.630786,143.025956 294.061717,145.563657 293.277644,149.854373 C292.954664,151.330854 292.862384,152.945756 292.862384,154.191536 C292.862384,156.590818 293.554484,158.298 295.815346,158.298 C298.721861,158.298 300.336762,155.990998 301.213422,151.054014 L301.213422,151.054014 Z M308.18026,146.901718 C308.18026,154.422237 305.088878,162.957836 294.938685,162.957836 C289.356049,162.957836 286.218526,160.004873 286.218526,154.422237 C286.218526,147.547679 288.894648,138.36612 299.506549,138.36612 C302.782184,138.36612 308.18026,139.611901 308.18026,146.901718 L308.18026,146.901718 Z M246.397871,149.392973 L244.091177,162.358015 L237.769992,162.358015 L240.953655,144.364017 C241.138215,143.303103 240.999795,143.072403 240.123134,142.933675 L238.738933,142.841703 L239.431033,138.96594 L247.735932,138.96594 L247.228392,142.010875 L247.320672,142.010875 C248.843293,139.796461 250.919595,138.36612 254.37979,138.36612 C258.993793,138.36612 261.346627,140.765401 260.377687,146.348038 L258.393973,157.513311 C258.255553,158.436112 258.439805,158.620672 259.316773,158.620672 C259.501026,158.620672 259.870454,158.620672 260.193127,158.574532 C260.377687,158.574532 260.562554,158.574532 260.793255,158.528392 L260.101154,162.358015 C258.947653,162.680995 257.240472,162.911696 255.994691,162.911696 C252.303796,162.911696 251.334855,161.066094 251.888228,157.790152 L253.687689,147.639959 C254.103257,145.379097 253.872557,143.487356 251.426827,143.487356 C248.658733,143.487356 247.089972,145.471377 246.397871,149.392973 L246.397871,149.392973 Z M230.434034,151.054014 C230.664734,149.577533 230.757014,148.193332 230.757014,147.132419 C230.757014,144.548577 229.926494,143.025956 227.757912,143.025956 C224.85109,143.025956 223.282636,145.563657 222.498256,149.854373 C222.175275,151.330854 222.082995,152.945756 222.082995,154.191536 C222.082995,156.590818 222.775096,158.298 225.03565,158.298 C227.942472,158.298 229.557374,155.990998 230.434034,151.054014 L230.434034,151.054014 Z M237.400872,146.901718 C237.400872,154.422237 234.30949,162.957836 224.159297,162.957836 C218.576353,162.957836 215.439138,160.004873 215.439138,154.422237 C215.439138,147.547679 218.114952,138.36612 228.726853,138.36612 C232.002488,138.36612 237.400872,139.611901 237.400872,146.901718 L237.400872,146.901718 Z M200.028059,164.249757 L203.719261,143.348936 L200.674019,143.348936 L201.4584,138.96594 L204.503334,138.96594 L204.780175,137.397179 C205.656835,132.460503 207.686997,129 214.607694,129 C217.191536,129 219.221698,129.692101 220.652039,130.568761 L218.575738,134.721364 C217.283817,134.029264 216.176456,133.752424 214.930675,133.752424 C212.577533,133.752424 211.6089,134.859477 211.193332,137.304899 L210.916799,138.96594 L217.099256,138.96594 L216.361016,143.348936 L210.178559,143.348936 L206.395076,164.572737 C205.656835,168.632752 204.641754,172.923468 197.813337,172.923468 C195.645063,172.923468 193.430341,172.370095 192,171.447294 L193.984022,166.833599 C194.906822,167.340831 195.829623,167.617672 196.890536,167.617672 C198.505437,167.617672 199.520518,166.972019 200.028059,164.249757 L200.028059,164.249757 Z M280.081893,129.411262 L295.611706,129.411262 L294.181365,137.67002 L289.060129,138.039141 L289.521529,135.271046 C289.659949,134.394385 289.659949,134.025265 288.599036,134.025265 L284.999806,134.025265 L280.757998,158.159272 L284.033941,158.343832 L283.34184,162.358015 L274.391289,162.358015 L280.081893,129.411262 Z M271.744131,162.358015 L262.485363,162.358015 L263.131324,158.482252 L265.299598,158.343832 C266.268539,158.205412 266.591519,157.974712 266.776079,156.867659 L270.833326,134.025265 L267.373131,134.025265 C266.450331,134.025265 266.17349,134.440525 266.03507,135.224906 L265.61981,137.624188 L260.360153,137.993 L261.836635,129.411262 L277.434735,129.411262 L271.744131,162.358015 Z" id="Fill-1"></path>
        </g>
    </g>
</svg>